<svg width="15" height="15" viewBox="0 0 15 15" fill="none" xmlns="http://www.w3.org/2000/svg">
<path d="M5.33342 5.33535C5.33306 5.21704 5.3642 5.10076 5.42363 4.99846C5.48306 4.89616 5.56864 4.81152 5.67159 4.75322C5.77454 4.69492 5.89116 4.66507 6.00946 4.66674C6.12775 4.6684 6.24348 4.70152 6.34475 4.76268L9.67609 6.76068C9.77526 6.81979 9.85739 6.90365 9.91442 7.00403C9.97145 7.10442 10.0014 7.21789 10.0014 7.33335C10.0014 7.44881 9.97145 7.56228 9.91442 7.66267C9.85739 7.76305 9.77526 7.84691 9.67609 7.90602L6.34475 9.90402C6.24343 9.96521 6.12764 9.99833 6.00929 9.99997C5.89093 10.0016 5.77427 9.97169 5.6713 9.91332C5.56833 9.85494 5.48275 9.7702 5.42337 9.66781C5.36399 9.56541 5.33294 9.44905 5.33342 9.33068V5.33535Z" stroke="white" stroke-width="1.33333" stroke-linecap="round" stroke-linejoin="round"/>
<path d="M7.33341 14C11.0153 14 14.0001 11.0152 14.0001 7.33334C14.0001 3.65144 11.0153 0.666672 7.33341 0.666672C3.65152 0.666672 0.666748 3.65144 0.666748 7.33334C0.666748 11.0152 3.65152 14 7.33341 14Z" stroke="white" stroke-width="1.33333" stroke-linecap="round" stroke-linejoin="round"/>
</svg>
