<svg width="19" height="17" viewBox="0 0 19 17" fill="none" xmlns="http://www.w3.org/2000/svg">
<path d="M9.16658 4.16666V15.8333M9.16658 4.16666C9.16658 3.28261 8.8154 2.43476 8.19027 1.80964C7.56515 1.18452 6.71731 0.833328 5.83325 0.833328H1.66659C1.44557 0.833328 1.23361 0.921126 1.07733 1.07741C0.921049 1.23369 0.833252 1.44565 0.833252 1.66666V12.5C0.833252 12.721 0.921049 12.933 1.07733 13.0893C1.23361 13.2455 1.44557 13.3333 1.66659 13.3333H6.66658C7.32963 13.3333 7.96551 13.5967 8.43435 14.0656C8.90319 14.5344 9.16658 15.1703 9.16658 15.8333M9.16658 4.16666C9.16658 3.28261 9.51777 2.43476 10.1429 1.80964C10.768 1.18452 11.6159 0.833328 12.4999 0.833328H16.6666C16.8876 0.833328 17.0996 0.921126 17.2558 1.07741C17.4121 1.23369 17.4999 1.44565 17.4999 1.66666V12.5C17.4999 12.721 17.4121 12.933 17.2558 13.0893C17.0996 13.2455 16.8876 13.3333 16.6666 13.3333H11.6666C11.0035 13.3333 10.3677 13.5967 9.89882 14.0656C9.42998 14.5344 9.16658 15.1703 9.16658 15.8333" stroke="#128395" stroke-width="1.66667" stroke-linecap="round" stroke-linejoin="round"/>
</svg>
