<svg width="13" height="13" viewBox="0 0 13 13" fill="none" xmlns="http://www.w3.org/2000/svg">
<path d="M0.583252 0.583328H1.74992L3.30159 7.82833C3.35851 8.09366 3.50614 8.33086 3.71908 8.49908C3.93202 8.6673 4.19695 8.75603 4.46825 8.74999H10.1733C10.4388 8.74957 10.6962 8.65858 10.903 8.49207C11.1098 8.32555 11.2537 8.09347 11.3108 7.83416L12.2733 3.49999H2.37409M4.63743 11.6375C4.63743 11.9596 4.37626 12.2208 4.05409 12.2208C3.73193 12.2208 3.47076 11.9596 3.47076 11.6375C3.47076 11.3153 3.73193 11.0541 4.05409 11.0541C4.37626 11.0541 4.63743 11.3153 4.63743 11.6375ZM11.0541 11.6375C11.0541 11.9596 10.7929 12.2208 10.4708 12.2208C10.1486 12.2208 9.88743 11.9596 9.88743 11.6375C9.88743 11.3153 10.1486 11.0541 10.4708 11.0541C10.7929 11.0541 11.0541 11.3153 11.0541 11.6375Z" stroke="white" stroke-width="1.16667" stroke-linecap="round" stroke-linejoin="round"/>
</svg>
