<svg width="15" height="19" viewBox="0 0 15 19" fill="none" xmlns="http://www.w3.org/2000/svg">
<path d="M9.16659 0.833346H2.49992C2.05789 0.833346 1.63397 1.00894 1.32141 1.3215C1.00885 1.63406 0.833252 2.05799 0.833252 2.50001V15.8333C0.833252 16.2754 1.00885 16.6993 1.32141 17.0119C1.63397 17.3244 2.05789 17.5 2.49992 17.5H12.4999C12.9419 17.5 13.3659 17.3244 13.6784 17.0119C13.991 16.6993 14.1666 16.2754 14.1666 15.8333V5.83335M9.16659 0.833346C9.43038 0.832919 9.69165 0.884681 9.93536 0.985653C10.1791 1.08663 10.4004 1.23481 10.5866 1.42168L13.5766 4.41168C13.764 4.59794 13.9126 4.81947 14.0138 5.06348C14.1151 5.30749 14.167 5.56915 14.1666 5.83335M9.16659 0.833346V5.00001C9.16659 5.22102 9.25438 5.43299 9.41066 5.58927C9.56694 5.74555 9.77891 5.83334 9.99992 5.83334L14.1666 5.83335M5.83325 6.66668H4.16659M10.8333 10H4.16659M10.8333 13.3333H4.16659" stroke="white" stroke-width="1.66667" stroke-linecap="round" stroke-linejoin="round"/>
</svg>
