<svg width="19" height="14" viewBox="0 0 19 14" fill="none" xmlns="http://www.w3.org/2000/svg">
<path d="M4.16659 5.83334H7.49992M5.83325 4.16668V7.50001M11.6666 6.66668H11.6749M14.1666 5.00001H14.1749M13.5999 0.833344H4.73325C3.90848 0.833536 3.11307 1.13949 2.50078 1.69206C1.88849 2.24464 1.50279 3.00459 1.41825 3.82501C1.41325 3.86834 1.40992 3.90918 1.40409 3.95168C1.33659 4.51334 0.833252 8.71334 0.833252 10C0.833252 10.6631 1.09664 11.2989 1.56549 11.7678C2.03433 12.2366 2.67021 12.5 3.33325 12.5C4.16659 12.5 4.58325 12.0833 4.99992 11.6667L6.17825 10.4883C6.49074 10.1758 6.91459 10.0001 7.35659 10H10.9766C11.4186 10.0001 11.8424 10.1758 12.1549 10.4883L13.3333 11.6667C13.7499 12.0833 14.1666 12.5 14.9999 12.5C15.663 12.5 16.2988 12.2366 16.7677 11.7678C17.2365 11.2989 17.4999 10.6631 17.4999 10C17.4999 8.71251 16.9966 4.51334 16.9291 3.95168C16.9233 3.91001 16.9199 3.86834 16.9149 3.82584C16.8306 3.00527 16.445 2.24512 15.8326 1.69237C15.2203 1.13963 14.4248 0.833557 13.5999 0.833344Z" stroke="#128395" stroke-width="1.66667" stroke-linecap="round" stroke-linejoin="round"/>
</svg>
