<svg width="29" height="29" viewBox="0 0 29 29" fill="none" xmlns="http://www.w3.org/2000/svg">
<path d="M16.8524 26.7814C16.87 20.4416 15.0829 17.0314 14.3563 17.0314C13.6298 17.0314 11.8602 20.4416 11.8602 26.7697C11.8602 27.3205 11.6317 27.8361 11.2274 28.1994C10.5653 28.7912 9.52234 28.8673 8.7782 28.3634C5.35632 26.049 2.43835 21.7892 0.985229 16.9787C-0.561646 11.8576 -0.274537 6.83608 1.75867 3.55483C2.94226 1.64468 4.63562 0.449366 6.6571 0.103663C8.28015 -0.171727 10.0204 0.115382 11.7548 0.959132C13.3602 1.73843 15.3524 1.73843 16.9637 0.959132C18.6923 0.115382 20.4384 -0.177587 22.0555 0.103663C24.077 0.449366 25.7704 1.64468 26.954 3.55483C28.9872 6.84194 29.2743 11.8576 27.7274 16.9787C26.2743 21.7892 23.3622 26.0548 19.9344 28.3634C18.8505 29.0958 16.8466 28.8263 16.8524 26.7814ZM7.0614 2.45913C5.7196 2.71694 4.61804 3.47866 3.79773 4.8146C2.13953 7.48062 1.94617 11.881 3.27624 16.2873C4.48328 20.2775 6.77429 23.8166 9.48132 25.9201C9.62781 20.3244 11.163 14.6408 14.3563 14.6408C17.5497 14.6408 19.0907 20.3361 19.2313 25.9201C21.9384 23.8166 24.2294 20.2775 25.4364 16.2873C26.7665 11.881 26.5731 7.48062 24.9208 4.8146C24.0946 3.48452 22.9989 2.69351 21.6571 2.45913C20.5262 2.26577 19.2841 2.48843 18.0067 3.10952C15.7509 4.19937 12.9677 4.19937 10.7118 3.10952C9.72742 2.63491 7.99304 2.27749 7.0614 2.45913Z" fill="#128395"/>
</svg>
