<svg width="19" height="12" viewBox="0 0 19 12" fill="none" xmlns="http://www.w3.org/2000/svg">
<path d="M12.4999 6.66668L16.8524 9.56835C16.9152 9.61011 16.9881 9.63406 17.0633 9.63766C17.1386 9.64126 17.2135 9.62438 17.2799 9.5888C17.3464 9.55323 17.4019 9.5003 17.4407 9.43565C17.4794 9.371 17.4999 9.29705 17.4999 9.22168V2.39168C17.4999 2.31837 17.4806 2.24635 17.4439 2.18289C17.4072 2.11943 17.3544 2.06679 17.2908 2.03027C17.2272 1.99375 17.1552 1.97465 17.0818 1.9749C17.0085 1.97515 16.9366 1.99473 16.8733 2.03168L12.4999 4.58335M2.49992 0.833333H10.8333C11.7537 0.833333 12.4999 1.57953 12.4999 2.5V9.16667C12.4999 10.0871 11.7537 10.8333 10.8333 10.8333H2.49992C1.57944 10.8333 0.833252 10.0871 0.833252 9.16667V2.5C0.833252 1.57953 1.57944 0.833333 2.49992 0.833333Z" stroke="#128395" stroke-width="1.66667" stroke-linecap="round" stroke-linejoin="round"/>
</svg>
