<svg width="146" height="65" viewBox="0 0 146 65" fill="none" xmlns="http://www.w3.org/2000/svg">
<path d="M17.4545 36.9163L12.6605 28.5364C11.9918 27.3675 11.5965 26.0625 11.5042 24.7191L10.8002 14.4664" stroke="#006879" stroke-width="0.25"/>
<path fill-rule="evenodd" clip-rule="evenodd" d="M10.7989 3.17918C9.45143 3.15513 8.43884 3.83352 7.91167 5.09715C6.76348 4.3488 5.54524 4.36022 4.44629 5.13795C3.05665 6.11957 2.52984 7.83431 3.07051 9.61267C3.99501 12.6607 7.61492 14.1557 10.6937 14.5386L10.8287 14.5554L10.9308 14.4655C13.2599 12.4151 15.4082 9.14155 14.4551 6.10232C13.9004 4.32828 12.4994 3.20796 10.7989 3.17918Z" fill="#E76E70"/>
<path fill-rule="evenodd" clip-rule="evenodd" d="M28.792 9.92513C29.9199 8.25613 32.3265 7.25746 35.5069 7.13862C35.8978 7.124 36.8549 7.14811 37.3097 7.18402C38.1951 7.25389 39.1697 7.42808 39.9489 7.65568C41.7952 8.19499 42.9242 9.00936 42.7614 9.67389C42.7628 9.69171 42.7635 9.7095 42.7634 9.72725C42.762 9.96599 42.7034 10.0288 42.482 10.0288C42.3796 10.0288 41.9012 9.94811 41.3977 9.84875C41.9089 10.1536 42.4527 10.5756 42.8269 10.9628C43.7151 11.8816 44.1166 12.7829 44.3097 14.2913C44.3363 14.4988 44.3541 14.8655 44.3623 15.2731C44.3833 15.7573 44.3777 16.2696 44.3456 16.7973C44.3423 16.8583 44.3385 16.9152 44.3344 16.9671C44.3046 17.3854 44.2583 17.8126 44.1954 18.2425C44.1172 18.7776 44.0139 19.2886 43.8422 19.9906C43.8339 20.0243 43.8259 20.0577 43.8182 20.0903C43.8409 20.1307 43.8794 20.187 43.9228 20.2417C44.3537 20.785 44.4877 21.5927 44.2993 22.445C44.3008 22.4436 44.3023 22.443 44.3041 22.4433C44.3055 22.4436 44.307 22.4445 44.3085 22.446C44.3188 22.4563 44.3199 22.4828 44.311 22.505C44.3012 22.5294 44.2939 22.5222 44.2923 22.4864C44.2922 22.4829 44.2922 22.4796 44.2922 22.4765C44.2703 22.5717 44.2444 22.6673 44.2145 22.7632C43.9863 23.4941 43.2544 24.3621 42.5792 24.7025C42.4273 24.7792 42.4193 24.7898 42.3524 25.0033C42.2563 25.3096 42.0656 25.7012 41.8673 25.9993C41.7132 26.231 41.2634 26.7169 40.9308 27.0109C40.035 27.8029 38.622 28.4659 37.2789 28.7246C36.9253 28.7926 36.4492 28.835 36.0352 28.8351L35.6764 28.8351L35.6242 29.0284C35.6475 29.041 35.6391 29.1047 35.5943 29.2627C35.5712 29.3442 35.5344 29.4761 35.4988 29.6048C35.5136 29.6171 35.6373 29.6694 35.7753 29.7218C35.9145 29.7745 36.2046 29.8943 36.42 29.9879C36.6354 30.0816 37.0069 30.225 37.2456 30.3068C38.2912 30.6649 39.5331 31.139 40.2066 31.4373C40.4428 31.5419 40.9981 31.81 41.0168 31.8285C41.0211 31.8327 41.0076 31.911 40.9859 32.0109C40.9902 32.0389 40.9865 32.093 40.9753 32.1703L44.0825 29.1799L44.4733 28.8038C44.4287 28.1557 44.4853 27.1813 44.6036 26.9115C44.708 26.6735 44.9373 26.5019 45.3572 26.3474C45.4224 26.3234 45.4708 26.2739 45.5068 26.1944C45.6371 25.9064 45.9159 25.5592 46.1287 25.42C46.3008 25.3074 46.4362 25.2866 46.5922 25.3488C46.7692 25.4193 46.8023 25.5137 46.7985 25.9367L46.7954 26.2788L46.9589 26.1461C47.1788 25.9676 47.3577 25.8669 47.5323 25.8236C47.662 25.7913 47.692 25.7945 47.8149 25.8538C47.912 25.9007 47.9621 25.9481 47.9856 26.0153C48.0422 26.1772 48.0225 26.4093 47.9287 26.6849C47.8798 26.8285 47.8439 26.9501 47.8487 26.9552C47.8536 26.9602 47.9492 26.9005 48.0613 26.8224C48.3779 26.6018 48.6902 26.5143 48.8905 26.5902C48.9807 26.6244 49.0667 26.7942 49.0667 26.9381C49.0667 27.0495 48.9847 27.3147 48.8997 27.4785C48.872 27.5319 48.8573 27.5757 48.8671 27.5757C48.8768 27.5757 48.9649 27.5194 49.0627 27.4506C49.2759 27.3007 49.4485 27.2654 49.5725 27.3464C49.7397 27.4555 49.7806 27.6382 49.7029 27.9289C49.6609 28.0858 49.4633 28.4706 49.3767 28.564C49.3503 28.5926 49.2939 28.6825 49.2516 28.7638C49.2092 28.8452 49.0713 29.0638 48.9452 29.2496C48.6832 29.6355 48.0619 30.2798 47.7498 30.4892C47.4963 30.6592 47.1068 30.8513 46.9598 30.8788C46.8809 30.8936 46.81 30.9368 46.7448 31.0099C46.6913 31.0699 46.5627 31.2098 46.459 31.3208C46.3553 31.4318 46.2118 31.5917 46.1401 31.6761C46.0683 31.7606 45.9185 31.931 45.8072 32.0547C45.6959 32.1785 45.5762 32.3167 45.5412 32.3619C45.5062 32.4071 45.4672 32.4485 45.4546 32.454C45.442 32.4595 45.3321 32.577 45.2104 32.7151C44.5433 33.4719 43.441 34.5985 43.0418 34.9317C42.5445 35.3467 42.0027 35.6394 41.4775 35.7769C41.2327 35.8409 41.1849 35.8443 40.9651 35.8134C40.7681 35.7856 40.5254 35.7185 40.3877 35.659L39.8984 36.1606L39.9488 35.9699C39.8389 36.3201 39.7529 36.5828 39.7419 36.5942C39.7355 36.6009 39.5531 36.5564 39.3367 36.4954C39.1202 36.4343 38.3814 36.2387 37.6949 36.0606C37.0085 35.8825 36.3497 35.71 36.2311 35.6774C35.7308 35.5399 35.6279 35.5145 35.617 35.5258C35.6106 35.5324 35.4867 36.0146 35.3416 36.5975C34.624 39.4804 34.2682 41.2735 34.1435 42.6919C34.1205 42.9896 34.1044 43.2884 34.0937 43.6L34.0892 43.7291L34.0835 43.727C34.0825 43.742 34.0814 43.7557 34.0803 43.7681C34.3412 43.8553 34.7057 43.9901 35.0404 44.124C35.2344 44.2016 35.4864 44.3761 35.6245 44.5285C36.0582 45.0071 36.418 45.9838 36.6776 47.3869C36.7135 47.5812 36.7558 47.8024 36.7717 47.8784C36.8208 48.1142 36.9512 48.9286 36.9709 49.1224C36.9811 49.2238 37.0023 49.3759 37.0179 49.4604C37.0972 49.8894 37.2867 51.1014 37.3093 51.3241L37.5039 52.4201C37.6607 52.363 37.826 52.3134 37.9863 52.2785C38.0888 52.2558 38.235 52.2361 38.3113 52.2344C38.3528 52.2336 38.3832 52.2327 38.4113 52.2407C38.4881 52.2613 38.5479 52.3453 38.7721 52.6593L38.7721 52.6597L38.7736 52.6614C38.864 52.7883 38.9589 52.9072 38.9845 52.9261C39.0247 52.9559 39.0213 52.966 38.9596 52.9988C38.7767 53.0963 38.504 53.4056 38.4106 53.6216C38.3789 53.6947 38.3822 53.7149 38.4343 53.767C38.5163 53.8485 38.5772 53.817 38.6486 53.6565C38.732 53.4686 38.9866 53.2106 39.1901 53.1081C39.363 53.0207 39.7905 52.9572 39.7905 53.019C39.7905 53.0341 39.7391 53.074 39.6761 53.1077C39.5335 53.1833 39.2433 53.4636 39.1296 53.6359C39.0276 53.7901 39.0378 53.9217 39.1516 53.92C39.2015 53.9191 39.2581 53.8633 39.357 53.717C39.5595 53.4174 39.8221 53.2367 40.2009 53.1354C40.34 53.0984 40.561 53.1068 40.561 53.1493C40.561 53.1598 40.4951 53.203 40.4146 53.2451C40.2386 53.3375 39.8585 53.7069 39.7751 53.8666C39.7195 53.9734 39.7188 53.9855 39.7659 54.0322C39.8368 54.1028 39.8905 54.0725 40.0325 53.8809C40.2666 53.5649 40.6007 53.3447 40.955 53.272C41.1453 53.2329 41.1591 53.235 41.7402 53.3804C42.4966 53.5699 42.9489 53.7246 43.4116 53.9511C43.8188 54.1507 44.0126 54.307 44.0126 54.4356C44.0126 54.547 43.7202 54.8235 43.4431 54.9744C42.3168 55.5875 39.7269 56.1414 36.1695 56.5301C34.9382 56.6646 34.5504 56.6969 34.5237 56.6663C34.5107 56.6511 34.4688 56.5217 34.4307 56.378C34.3925 56.2343 34.271 55.8128 34.1606 55.4413C33.8782 54.4907 33.7872 54.1646 33.7757 54.062L33.7657 53.9729L34.2434 53.9032L34.2485 53.9023L34.1986 53.73L33.8087 52.3844L33.7682 52.3046C33.746 52.2604 33.7037 52.1487 33.6743 52.0558C33.6449 51.9629 33.5811 51.7831 33.5325 51.6566C33.4839 51.5296 33.3735 51.2325 33.2872 50.9959C33.114 50.5211 33.019 50.2702 32.7877 49.6751C32.7023 49.4557 32.5849 49.1515 32.5268 48.9995C32.4688 48.8474 32.4087 48.6954 32.3934 48.6616C32.378 48.6278 32.3089 48.4551 32.24 48.2777L32.2276 48.246C32.0833 47.875 32.0493 47.7876 31.9873 47.7576C31.9682 47.7484 31.9464 47.7446 31.918 47.7397L31.9102 47.7383C31.8459 47.7271 31.7036 47.6998 31.594 47.6776C31.5393 47.6666 31.4872 47.658 31.4473 47.653C31.2634 48.0076 31.0664 48.3204 30.8614 48.5787C30.7113 48.7679 30.651 48.8221 30.5904 48.8221C30.5475 48.8221 30.0391 48.7524 29.4607 48.6672C28.8823 48.582 28.3914 48.5164 28.3699 48.5213C28.3484 48.5263 28.1322 48.7039 27.8894 48.9162C27.3194 49.4146 26.7086 49.902 25.76 50.6165L24.9964 51.1913L24.8971 51.109C24.8118 51.0388 24.6387 50.8589 24.4445 50.6438L24.1042 50.8884C23.8651 51.0607 23.5744 51.2405 23.4499 51.2939C23.2405 51.3838 23.2011 51.3901 22.8408 51.3926C22.6203 51.3943 22.3699 51.3771 22.2553 51.3531C21.9831 51.2956 21.3912 51.138 21.3153 51.1027C21.2814 51.0871 21.115 51.0254 20.9455 50.9657C20.776 50.906 20.6096 50.8438 20.5757 50.8274C20.5418 50.811 20.3685 50.7362 20.1905 50.6614C19.6663 50.4412 19.3923 50.3206 19.0732 50.1702C18.9078 50.0924 18.7652 50.0285 18.7564 50.0285C18.7476 50.0285 18.6402 49.979 18.5178 49.918C18.3953 49.8575 18.2328 49.7831 18.1565 49.7524C18.0802 49.7222 17.8029 49.594 17.5401 49.4679C17.2774 49.3419 16.9793 49.2002 16.8776 49.1536C16.7759 49.107 16.6773 49.0566 16.6585 49.0417C16.6083 49.0238 16.5571 49.0058 16.5051 48.9876C16.317 48.9216 16.1194 48.8523 15.9282 48.7714C15.8558 49.0892 15.7101 49.5369 15.6284 49.6684C15.5552 49.7865 15.4994 49.7991 14.9926 49.8121L14.6792 49.8205L14.6595 49.6516C14.6345 49.4364 14.5961 49.3078 14.4968 49.1062C14.43 48.9704 14.4042 48.9449 14.3334 48.9449C14.2057 48.9449 14.2029 49.0171 14.3219 49.2448C14.5135 49.6108 14.4936 50.0916 14.2768 50.3336L14.1898 50.4303L14.1738 50.1256C14.1578 49.818 14.0748 49.5192 13.979 49.4238C13.887 49.3322 13.7258 49.4721 13.8088 49.5717C13.8273 49.594 13.871 49.6936 13.906 49.7928C14.0344 50.1576 13.9667 50.7085 13.7693 50.9052L13.6969 50.977L13.6788 50.6446C13.6533 50.176 13.5459 49.8663 13.4089 49.8663C13.3105 49.8663 13.3037 49.9491 13.3829 50.1844C13.4863 50.4916 13.4878 51.0069 13.3859 51.2288C13.2322 51.5641 11.9838 52.5945 11.3561 52.9047C10.78 53.1892 10.6725 53.0883 10.7069 52.2957C10.7206 51.9806 10.7466 51.8209 10.847 51.433C11.0792 50.5366 11.4861 49.4574 12.1079 48.0881C12.457 47.3194 13.4736 45.2829 13.8228 44.6525C13.9375 44.4456 14.0365 44.2763 14.0429 44.2763C14.0493 44.2763 14.1697 44.3173 14.3104 44.3675C14.4511 44.4176 14.7951 44.5288 15.0747 44.6146C15.8734 44.8595 16.5349 45.0736 16.579 45.1014C16.5903 45.1085 16.5932 45.1257 16.5856 45.1591C16.9408 45.3218 17.8483 45.7576 17.8483 45.7707C17.8483 45.7868 17.8563 45.7921 17.866 45.7824C17.8758 45.7727 18.011 45.799 18.1665 45.8409C18.322 45.8828 18.5949 45.9492 18.7729 45.9885C18.9508 46.0277 19.1866 46.0816 19.2968 46.1082C19.8451 46.2407 20.3065 46.3473 20.5805 46.405C20.9679 46.4864 21.2253 46.5459 21.3644 46.5864L21.3631 46.5845L21.4339 46.5145C21.4273 46.505 21.4203 46.4948 21.4129 46.4841L21.3511 46.3953L21.6377 46.1239L21.9109 45.8652L21.8959 45.7967C21.8744 45.698 21.8628 45.5484 21.8602 45.3779C21.8043 44.6721 21.9352 43.9396 22.2594 43.1329C22.4022 42.7776 22.6538 42.2678 22.8421 41.9517L22.9127 41.8334L22.7507 41.6789C22.6223 41.5563 22.4704 41.3788 22.4133 41.2843L22.3093 41.1125L22.3473 41.0204C22.3278 40.9838 22.3169 40.9545 22.3169 40.9355C22.3169 40.909 22.4915 40.4665 22.705 39.9522C22.9184 39.4378 23.1665 38.8374 23.2564 38.6178C23.6216 37.7252 24.5596 35.46 25.1637 34.0118C25.2544 33.7943 25.3349 33.5981 25.3876 33.4672C25.1965 33.4508 24.5902 33.4156 23.8824 33.3805C23.0299 33.3383 22.3202 33.2926 22.3055 33.2791C22.3019 33.2758 22.2987 33.2172 22.296 33.1185C22.2863 33.1174 22.2809 33.1166 22.2798 33.1159C22.2663 33.1076 22.2548 33.0014 22.2543 32.8799C22.2534 32.6764 22.2497 32.6638 22.2069 32.7204C22.1814 32.7542 22.0883 32.8634 21.9999 32.963C21.9115 33.0627 21.8192 33.1732 21.7947 33.2088C21.7703 33.2443 21.6524 33.385 21.5328 33.5215C21.4132 33.658 21.2044 33.9054 21.0688 34.0713C20.9332 34.2373 20.7979 34.3987 20.7683 34.4299C20.7387 34.461 20.7144 34.4987 20.7144 34.5135C20.7144 34.5284 20.6913 34.5595 20.663 34.5827C20.6348 34.6058 20.5724 34.6787 20.5243 34.7446C20.4763 34.8105 20.437 34.8485 20.437 34.829C20.437 34.8096 20.4217 34.7937 20.4029 34.7937C20.384 34.7937 20.3774 34.8161 20.3881 34.8439C20.4004 34.8758 20.3624 34.9535 20.2835 35.0576C20.2154 35.1475 20.1597 35.2368 20.1597 35.2561C20.1597 35.2753 20.1867 35.3289 20.2197 35.3751C20.2527 35.4213 20.3518 35.61 20.4398 35.7945C20.802 36.5533 20.951 37.1484 20.9223 37.7224C20.9085 37.9997 20.8515 38.3141 20.8073 38.3567C20.7986 38.3651 20.7706 38.4084 20.7452 38.4528C20.6308 38.6525 20.524 38.7847 20.3336 38.9623C20.221 39.0672 20.1288 39.1664 20.1288 39.1826C20.1288 39.2353 19.9737 39.3974 19.8319 39.4928C19.672 39.6003 19.3729 39.7081 19.2346 39.7081C19.1823 39.7081 19.0965 39.6859 19.0437 39.6587C18.9747 39.6231 18.8955 39.6134 18.7602 39.6238C18.5052 39.6433 18.3208 39.5711 18.0365 39.3402C17.8369 39.178 17.7926 39.1553 17.6765 39.1553C17.6037 39.1553 17.5051 39.1406 17.4574 39.1227C17.3573 39.0852 17.1395 38.8841 17.1395 38.8293C17.1395 38.7626 16.9631 38.6423 16.8353 38.622C16.6919 38.5991 16.4615 38.4045 16.4615 38.3062C16.4615 38.2731 16.4442 38.2288 16.423 38.2077C16.3974 38.1822 16.3853 38.0745 16.3868 37.8867C16.3897 37.5157 16.4949 37.1092 16.7698 36.4063C16.8358 36.2373 16.9619 35.9125 17.05 35.6844C17.2267 35.2269 17.3288 35.0087 17.3993 34.9385C17.4249 34.913 17.5942 34.6039 17.7756 34.2517C18.0691 33.6818 18.7508 32.3808 19.1574 31.6147C19.2381 31.4626 19.4297 31.1309 19.5833 30.8775C20.2304 29.8096 20.6896 29.3074 21.3369 28.9599C21.637 28.7989 21.8411 28.7385 22.1064 28.7323L22.3163 28.7275L22.3166 28.523L22.3169 28.3186L22.4633 28.3005C23.0223 28.2314 24.554 28.1349 25.7531 28.0933C27.0126 28.0496 27.6198 28.0715 29.7286 28.2363C30.0676 28.2628 30.446 28.2978 30.5696 28.314L30.5933 28.3171C30.8073 28.3453 30.8883 28.356 30.9243 28.3208C30.9463 28.2994 30.9515 28.261 30.96 28.1992C30.9605 28.1955 30.961 28.1918 30.9615 28.1879C30.975 28.0901 30.9962 28.0372 31.0184 28.0457C31.0428 28.0551 31.0527 28.0011 31.0505 27.8712C31.0473 27.6907 31.0429 27.6808 30.9426 27.6247C30.7091 27.4943 30.304 27.2529 30.1446 27.1492C29.5647 26.7716 28.5954 25.8654 28.4357 25.5515C28.3563 25.3953 28.3484 25.389 28.2548 25.4079C27.9555 25.4684 27.596 25.4641 27.277 25.3962C26.9489 25.3262 26.3804 25.1211 26.2908 25.0402C26.2636 25.0157 26.2269 24.9956 26.2093 24.9956C26.1646 24.9956 25.7869 24.7405 25.5836 24.5731C24.9238 24.0296 24.4442 23.2354 24.2529 22.3694C24.1901 22.0849 24.2007 21.2228 24.2702 20.9719C24.41 20.4673 24.6363 20.1181 25.0236 19.81C25.0331 19.8025 25.0418 19.796 25.0497 19.7902C25.0671 19.7773 25.0809 19.7671 25.091 19.754C25.0978 19.7451 25.1028 19.7348 25.1061 19.7215C25.0416 19.4232 24.9291 18.7279 24.8773 18.2759C24.7659 17.3042 24.7074 16.1224 24.7377 15.5218C24.7429 15.0694 24.7686 14.8169 24.8791 13.9074C25.056 12.4522 25.2622 11.8867 25.805 11.369C26.1763 11.0148 26.75 10.6975 27.1584 10.6203C27.3361 10.5867 27.6151 10.5829 27.8143 10.6057C27.3819 10.339 26.9771 10.2131 26.4927 10.1915C26.1272 10.1751 25.8469 10.2205 25.6108 10.3341L25.4863 10.3942L25.5078 10.2652C25.5111 10.2455 25.5147 10.2257 25.5185 10.206L25.4911 10.2181V10.1501C25.4911 10.0412 25.6065 9.65638 25.6972 9.46284C25.803 9.2373 25.9844 8.98866 26.1164 8.88825C26.6033 8.51816 27.2441 8.61491 27.7962 9.14196C28.0978 9.42976 28.2881 9.72806 28.4743 10.2049L28.5339 10.3573L28.5887 10.251C28.6189 10.1926 28.7104 10.0459 28.792 9.92513ZM43.7993 23.6971C43.8194 23.6548 43.8496 23.603 43.8664 23.5819C43.8831 23.5608 43.9026 23.5435 43.9096 23.5435C43.9274 23.5435 43.8726 23.6392 43.8128 23.7124C43.7644 23.7716 43.764 23.7711 43.7993 23.6971ZM43.1402 24.3416C43.1181 24.3413 43.1219 24.3292 43.1497 24.3114C43.2089 24.2732 43.2196 24.2732 43.1959 24.3114C43.1854 24.3283 43.1604 24.3419 43.1402 24.3416Z" fill="#006879"/>
<path d="M59.496 28H55.296V8.4H59.496V19.656L67.56 11.48V8.4H71.76V28H67.56V16.744L61.792 22.596C60.112 24.276 59.496 25.34 59.496 28ZM73.4947 32.2V24.304H74.8667C76.4067 24.304 76.8827 23.24 76.9947 21.644L78.0027 8.4H91.0507V24.304H93.5707V32.2H89.6507L89.3707 28H77.6947L77.4147 32.2H73.4947ZM81.0547 21.504C80.9427 22.876 80.7187 23.576 80.0467 24.304H86.8507V12.096H81.7547L81.0547 21.504ZM100.408 22.512L93.1559 8.512V8.4H97.8879L102.592 17.724L106.624 8.4H111.076V8.512L102.284 28H97.8319V27.888L100.408 22.512ZM122.629 28V8.4H126.829V16.156H129.377L134.137 8.4H138.841V8.512L132.765 18.144L135.005 21.392C135.873 22.68 136.881 24.136 138.533 24.136C138.757 24.136 138.981 24.108 139.177 24.08V28.084C138.617 28.224 138.057 28.28 137.581 28.28C134.361 28.28 132.625 25.592 130.945 22.904L129.069 19.852H126.829V28H122.629ZM63.36 56H55.296V36.4H63.136C66.692 36.4 69.352 38.192 69.352 41.44C69.352 43.316 68.484 44.884 66.776 45.584C68.848 46.256 70.36 47.6 70.36 50.26C70.36 53.9 67.504 56 63.36 56ZM62.688 47.796H59.496V52.416H62.688C65.012 52.416 66.048 51.688 66.048 50.092C66.048 48.496 65.012 47.796 62.688 47.796ZM62.408 39.984H59.496V44.212H62.38C64.284 44.212 65.124 43.4 65.124 42.084C65.124 40.768 64.312 39.984 62.408 39.984ZM72.6604 56V36.4H80.5564C84.5324 36.4 87.1644 38.948 87.1644 42.756C87.1644 46.564 84.5324 49.112 80.5564 49.112H76.8604V56H72.6604ZM80.0244 40.096H76.8604V45.416H80.0244C81.8444 45.416 82.8244 44.436 82.8244 42.756C82.8244 41.076 81.8444 40.096 80.0244 40.096ZM90.94 56H86.88V55.16C86.88 51.1 88.364 46.48 89.96 42.756L92.704 36.4H98.22L100.964 42.756C102.84 47.124 104.044 51.1 104.044 55.16V56H99.844V55.16C99.844 53.984 99.732 52.836 99.508 51.716H91.276C91.08 52.836 90.94 53.984 90.94 55.16V56ZM92.284 48.02H98.528C98.052 46.536 97.716 45.556 97.156 44.24L95.476 40.32H95.364L93.684 44.24C93.124 45.556 92.788 46.536 92.284 48.02ZM111.532 49.224C106.968 49.224 104.476 46.76 104.476 42.756V36.4H108.676V42.196C108.676 44.352 109.376 45.528 112.092 45.528H115.116V36.4H119.316V56H115.116V49.224H111.532ZM128.301 50.512L121.049 36.512V36.4H125.781L130.485 45.724L134.517 36.4H138.969V36.512L130.177 56H125.725V55.888L128.301 50.512Z" fill="#006879"/>
</svg>
